# xmcd CD database file
#
# Track frame offsets:
#	150
#	18268
#	36667
#	51621
#	61994
#	81357
#	99340
#	117176
#	132751
#	150092
#	165163
#	181357
#
# Disc length: 2616 seconds
#
# Revision: 2
# Processed by: cddbd v1.5.2PL0 Copyright (c) Steve Scherf et al.
# Submitted via: CDex 1.51
#
DISCID=910a360c
DTITLE=風 - ファースト・アルバム
DYEAR=1975
DGENRE=Folk
TTITLE0=ダンシングドール
TTITLE1=海岸通
TTITLE2=なんとなく
TTITLE3=星空
TTITLE4=でい どりーむ
TTITLE5=ロンリネス
TTITLE6=あいつ
TTITLE7=桜の道
TTITLE8=東京1975
TTITLE9=はずれくじ
TTITLE10=男は明日はくためだけの靴を磨く
TTITLE11=お前だけが
EXTD=YEAR: 1975
EXTT0=
EXTT1=
EXTT2=
EXTT3=
EXTT4=
EXTT5=
EXTT6=
EXTT7=
EXTT8=
EXTT9=
EXTT10=
EXTT11=
PLAYORDER=
